<svg xmlns="http://www.w3.org/2000/svg" xmlns:xlink="http://www.w3.org/1999/xlink" width="590" zoomAndPan="magnify" viewBox="0 0 442.5 442.499995" height="590" preserveAspectRatio="xMidYMid meet" version="1.0"><defs><filter x="0%" y="0%" width="100%" height="100%" id="b3d8e5c43c"><feColorMatrix values="0 0 0 0 1 0 0 0 0 1 0 0 0 0 1 0 0 0 1 0" color-interpolation-filters="sRGB"/></filter><g/><mask id="e2c3dd23d7"><g filter="url(#b3d8e5c43c)"><rect x="-44.25" width="531" fill="#000000" y="-44.249999" height="530.999994" fill-opacity="0.85"/></g></mask><clipPath id="e23c59cba4"><path d="M 54 56 L 373 56 L 373 380 L 54 380 Z M 54 56 " clip-rule="nonzero"/></clipPath><clipPath id="a368a674ad"><path d="M 253.363281 441.613281 L 0.144531 254.847656 L 188.242188 -0.179688 L 441.460938 186.589844 Z M 253.363281 441.613281 " clip-rule="nonzero"/></clipPath><clipPath id="d6d9ba7dd0"><path d="M 253.363281 441.613281 L 0.144531 254.847656 L 188.242188 -0.179688 L 441.460938 186.589844 Z M 253.363281 441.613281 " clip-rule="nonzero"/></clipPath><clipPath id="191f389f58"><rect x="0" width="442" y="0" height="442"/></clipPath><clipPath id="fa73270731"><path d="M 155.917969 123.441406 L 285.523438 123.441406 L 285.523438 247 L 155.917969 247 Z M 155.917969 123.441406 " clip-rule="nonzero"/></clipPath><clipPath id="448f04f626"><rect x="0" width="85" y="0" height="52"/></clipPath><clipPath id="ddf0ffed3e"><rect x="0" width="186" y="0" height="18"/></clipPath></defs><g mask="url(#e2c3dd23d7)"><g transform="matrix(1, 0, 0, 1, 0, -0.000000000000029534)"><g clip-path="url(#191f389f58)"><g clip-path="url(#e23c59cba4)"><g clip-path="url(#a368a674ad)"><g clip-path="url(#d6d9ba7dd0)"><path fill="#000000" d="M 124.167969 343.324219 L 131.007812 347.53125 L 137.851562 351.738281 L 135.75 349.945312 L 124.167969 343.324219 M 119.441406 318.421875 L 120.238281 318.929688 L 120.101562 318.78125 L 120.101562 318.777344 L 119.441406 318.421875 M 123.164062 320.792969 L 131.9375 326.382812 L 129.085938 323.640625 L 122.671875 320.167969 L 123.164062 320.792969 M 145.464844 332.597656 L 145.246094 332.386719 L 146.21875 332.914062 L 146.21875 332.910156 L 145.464844 332.597656 M 154.355469 341.9375 L 163.855469 345.265625 L 160.417969 345.246094 L 154.355469 341.9375 M 155.25 336.472656 L 155.390625 336.566406 L 155.527344 336.664062 L 156.707031 337.042969 C 156.222656 336.851562 155.738281 336.660156 155.25 336.472656 M 133.910156 321.511719 L 126.15625 314.074219 L 126.082031 313.386719 L 134 321.367188 L 143.585938 327.144531 L 152.261719 334.375 L 133.910156 321.511719 M 117.054688 305.148438 L 116.972656 305.023438 L 116.886719 304.898438 L 116.933594 304.9375 C 116.976562 305.007812 117.015625 305.078125 117.054688 305.148438 M 126.464844 347.761719 L 106.152344 323.832031 L 94.558594 312.382812 L 84.59375 294.359375 L 73.355469 271.722656 L 85.699219 301.695312 L 90.34375 309.457031 L 107.203125 332.019531 L 126.464844 347.761719 M 116.28125 303.789062 L 115.539062 302.910156 L 115.226562 302.449219 L 115.914062 303.140625 L 116.28125 303.789062 M 120.101562 318.78125 L 122.671875 320.167969 L 97.851562 288.855469 L 98.582031 290.488281 L 111.589844 309.386719 L 120.101562 318.78125 M 146.304688 333.402344 L 145.507812 332.636719 L 146.273438 332.941406 L 147.519531 333.617188 L 163.640625 340.199219 L 146.539062 333.046875 L 155.25 336.472656 L 152.964844 334.867188 L 162.085938 338.292969 L 163.503906 339.148438 L 165.046875 339.476562 L 165.886719 339.988281 L 156.703125 337.042969 L 167.035156 341.101562 L 167.726562 341.105469 L 174.324219 345.109375 L 172.339844 344.667969 L 146.304688 333.402344 M 169.390625 341.113281 L 169.59375 341.113281 C 169.984375 341.261719 170.378906 341.410156 170.769531 341.558594 C 170.308594 341.410156 169.851562 341.261719 169.390625 341.113281 M 97.851562 288.855469 L 97.464844 287.988281 L 97.074219 287.121094 L 96.585938 287.261719 L 97.851562 288.855469 M 129.183594 340.707031 L 161.566406 353.320312 L 192.84375 359.59375 L 195.460938 359.632812 L 192.382812 358.835938 L 190.726562 358.816406 L 158.789062 351.953125 L 129.867188 340.371094 L 129.183594 340.707031 M 174.5625 359.480469 L 181.777344 363.589844 L 207.25 367.324219 L 179.199219 361.476562 L 203.039062 365.46875 L 174.5625 359.480469 M 186.453125 354.863281 L 189.945312 354.230469 L 195.75 356.171875 C 192.652344 355.734375 189.550781 355.300781 186.453125 354.863281 M 178.511719 344.042969 L 184.097656 345.398438 L 182.710938 345.390625 L 178.511719 344.042969 M 104.890625 287.195312 L 104.550781 286.527344 L 104.214844 285.859375 C 103.9375 285.5625 103.660156 285.269531 103.382812 284.972656 C 103.886719 285.714844 104.386719 286.453125 104.890625 287.195312 M 97.648438 279.132812 L 94.019531 274.980469 L 97.421875 278.609375 L 97.648438 279.132812 M 191.949219 345.449219 L 192.949219 345.457031 C 192.492188 345.359375 192.035156 345.261719 191.574219 345.160156 C 191.699219 345.257812 191.824219 345.355469 191.949219 345.449219 M 110.195312 293.484375 L 105.558594 288.179688 L 104.890625 287.195312 L 105.15625 287.71875 L 101.980469 284.089844 L 101.644531 283.113281 L 103.382812 284.972656 L 101.136719 281.65625 L 99.054688 275.652344 L 100.691406 278.890625 L 101.5625 281.425781 L 101.304688 280.105469 L 104.214844 285.859375 L 109.804688 291.8125 L 110.976562 294.050781 L 110.195312 293.484375 M 71.300781 254.230469 L 71.277344 254.152344 L 71.28125 254.152344 L 71.28125 254.191406 L 71.300781 254.230469 M 77.734375 260.472656 L 78.195312 260.746094 L 76.996094 256.398438 C 77.242188 257.757812 77.488281 259.113281 77.734375 260.472656 M 79.886719 261.742188 L 79.433594 259.4375 L 78.976562 257.136719 C 79.417969 258.75 79.859375 260.367188 80.296875 261.984375 L 79.886719 261.742188 M 172.199219 341.128906 L 172.761719 341.132812 L 191.574219 345.160156 L 187.640625 342.136719 L 188.898438 341.363281 L 197.917969 345.488281 L 192.949219 345.457031 L 197.984375 346.535156 L 199.738281 346.320312 L 199.847656 346.371094 L 200.574219 346.472656 L 193.671875 346.773438 L 191.949219 345.449219 L 185.101562 345.40625 L 172.199219 341.128906 M 203.050781 358.980469 L 204.945312 359.390625 L 206.835938 359.796875 C 211.417969 359.863281 216 359.929688 220.578125 359.996094 L 212.382812 359.105469 L 203.050781 358.980469 M 220.578125 359.996094 L 224.882812 360.464844 L 226.257812 360.238281 L 226.566406 359.738281 L 224.371094 360.050781 L 220.578125 359.996094 M 82.28125 278.53125 L 73.710938 246.027344 L 73.59375 245.890625 L 75.023438 263.703125 L 82.28125 278.53125 M 206.136719 345.542969 L 208.238281 345.285156 L 210.34375 345.03125 C 210.71875 345.105469 211.09375 345.175781 211.46875 345.25 L 209.910156 345.566406 L 206.136719 345.542969 M 226.566406 359.738281 L 229.597656 359.304688 L 232.628906 358.875 C 230.886719 358.714844 229.140625 358.554688 227.394531 358.394531 C 227.117188 358.839844 226.839844 359.289062 226.566406 359.738281 M 222.332031 360.882812 L 230.746094 360.722656 L 236.542969 359.230469 L 233.875 358.988281 L 226.257812 360.238281 L 226.039062 360.589844 L 224.882812 360.464844 L 222.332031 360.882812 M 221.402344 351.789062 L 224.566406 351.378906 L 227.734375 350.972656 L 223.949219 351.839844 L 221.402344 351.789062 M 71.277344 254.152344 L 69.863281 239.6875 L 68.449219 225.226562 C 68.226562 230.613281 68 235.996094 67.777344 241.382812 L 71.277344 254.152344 M 113.019531 259.8125 L 112.71875 259.1875 L 112.421875 258.5625 L 112.066406 255.519531 L 112.492188 256.613281 L 113.019531 259.8125 M 216.367188 369.273438 L 227.242188 369.964844 L 258.679688 362.757812 L 233.847656 368.089844 L 215.558594 367.011719 L 216.367188 369.273438 M 93.171875 239.1875 L 93.011719 238.628906 L 92.855469 238.070312 L 93.1875 239.0625 L 93.171875 239.1875 M 72.097656 227.273438 L 72.101562 222.546875 L 72.109375 217.820312 L 71.53125 220.203125 L 72.097656 227.273438 M 79.75 240.582031 L 80.90625 237.535156 L 81.003906 237.449219 L 81.15625 238.492188 L 83.300781 229.617188 L 82.472656 225.363281 L 79.75 240.582031 M 246.554688 345.535156 L 247.109375 345.292969 L 247.144531 345.292969 L 246.554688 345.535156 M 105.179688 260.257812 L 100.117188 238.539062 L 100.273438 236.707031 L 104.65625 254.496094 L 105.179688 260.257812 M 79.265625 245.613281 L 79.574219 236.695312 L 79.878906 227.78125 L 80.058594 221.589844 C 79.054688 225.75 78.050781 229.90625 77.042969 234.0625 L 79.265625 245.613281 M 76.488281 228.75 L 76.925781 218.414062 L 76.507812 222.523438 L 76.488281 228.75 M 84.847656 221.746094 L 84.851562 221.734375 L 84.851562 221.71875 C 84.84375 221.660156 84.832031 221.597656 84.820312 221.539062 L 84.847656 221.746094 M 101.636719 233.167969 L 101.648438 233.023438 L 101.660156 232.882812 L 101.625 233.140625 L 101.636719 233.167969 M 227.039062 335.925781 L 227.625 336.023438 L 228.207031 336.121094 C 232.542969 335.726562 236.882812 335.335938 241.21875 334.941406 C 237.554688 334.96875 233.886719 335 230.21875 335.03125 L 227.039062 335.925781 M 167.292969 272.515625 L 167.742188 272.746094 L 168.195312 272.976562 L 167.972656 272.976562 C 167.746094 272.824219 167.519531 272.667969 167.292969 272.515625 M 158.113281 266.261719 L 160.429688 266.804688 L 161.746094 268.738281 L 158.113281 266.261719 M 183.484375 282.605469 L 188.386719 283.269531 L 191.4375 284.828125 L 189.171875 285.484375 L 183.484375 282.605469 M 54.480469 210.648438 L 58.265625 198.261719 L 62.046875 185.875 C 61.304688 187.566406 60.558594 189.257812 59.816406 190.949219 L 54.480469 210.648438 M 67.9375 252.777344 L 66.316406 229.40625 L 69.246094 210.53125 L 72.128906 196.808594 L 72.132812 193.179688 L 72.226562 192.875 L 69.085938 199.269531 L 65.96875 224.878906 L 67.9375 252.777344 M 198.378906 286.101562 L 200.625 285.480469 L 200.726562 285.476562 L 204.464844 285.050781 L 198.378906 286.101562 M 223.632812 336.882812 L 227.039062 335.925781 L 222.148438 335.09375 L 230.21875 335.03125 L 235.414062 333.566406 L 240.109375 330.886719 L 257.722656 326.1875 L 266.160156 322.238281 L 262.578125 324.808594 L 239.492188 332.617188 L 264.390625 325.007812 L 243.933594 334.203125 L 231.15625 337.75 L 223.632812 336.882812 M 77.484375 196.949219 L 78.414062 194.902344 L 82.453125 181.5625 L 79.234375 188.375 L 77.386719 196.011719 L 77.484375 196.949219 M 101.136719 238.742188 L 100.410156 235.089844 L 102.265625 213.34375 L 103.882812 208.09375 L 101.660156 232.882812 L 106.195312 200.582031 L 106.929688 198.210938 L 106.703125 210.277344 L 102.210938 232.726562 L 102.847656 236.714844 L 101.636719 233.167969 L 101.136719 238.742188 M 82.453125 181.5625 L 82.664062 181.121094 L 82.871094 180.683594 L 83.445312 178.296875 C 83.113281 179.382812 82.785156 180.472656 82.453125 181.5625 M 80.625 190.027344 L 83.414062 183.878906 L 84.375 177.492188 C 83.875 178.554688 83.371094 179.617188 82.871094 180.683594 L 80.625 190.027344 M 265.382812 324.5625 L 272.8125 319.125 C 273.730469 318.699219 274.644531 318.269531 275.5625 317.839844 L 269.914062 322.527344 L 265.382812 324.5625 M 284.09375 324.519531 L 284.71875 324.011719 L 285.28125 323.753906 L 284.09375 324.519531 M 83.445312 178.296875 L 83.949219 176.621094 L 84.457031 174.945312 C 84.304688 175.289062 84.152344 175.632812 84 175.972656 L 83.445312 178.296875 M 86.691406 170.710938 L 87.609375 169.570312 L 88.53125 168.433594 L 88.777344 167.507812 C 88.082031 168.574219 87.386719 169.640625 86.691406 170.710938 M 232.296875 272.101562 L 232.480469 271.972656 L 232.667969 271.839844 C 232.644531 271.886719 232.621094 271.929688 232.597656 271.976562 C 232.496094 272.019531 232.394531 272.0625 232.296875 272.101562 M 225.824219 274.820312 L 235.175781 267.066406 L 233.929688 269.4375 L 226.785156 274.417969 L 225.824219 274.820312 M 228.34375 276.835938 L 233.863281 272.335938 L 239.378906 267.835938 L 230.828125 275.855469 L 228.34375 276.835938 M 88.777344 167.507812 L 90.089844 165.488281 L 91.40625 163.46875 L 92.875 157.53125 L 89.503906 164.753906 L 88.777344 167.507812 M 110.1875 190.078125 L 114.289062 181.070312 C 114.0625 181.875 113.832031 182.679688 113.605469 183.484375 L 119.117188 174.292969 C 116.140625 179.554688 113.164062 184.816406 110.1875 190.078125 M 105.273438 193.28125 L 111.109375 176.25 L 114.519531 169.730469 L 107.773438 187.203125 L 105.273438 193.28125 M 90.902344 165.5 L 93.28125 162.554688 L 95.042969 160.230469 L 97.363281 154.3125 L 91.40625 163.46875 L 90.902344 165.5 M 307.1875 346.707031 L 308.808594 344.65625 L 310.429688 342.601562 C 311.230469 341.191406 312.03125 339.78125 312.832031 338.367188 C 319.691406 333.75 326.546875 329.132812 333.402344 324.515625 L 307.1875 346.707031 M 62.046875 185.875 L 72.96875 161.042969 L 86.757812 137.246094 L 69.960938 163.667969 L 67.273438 171.664062 L 65.390625 174.925781 L 62.046875 185.875 M 213.765625 230.078125 L 213.914062 229.898438 L 214.058594 229.722656 L 214.125 229.667969 C 214.007812 229.804688 213.886719 229.941406 213.765625 230.078125 M 124.414062 162.476562 L 124.742188 161.914062 L 125.066406 161.351562 L 125.6875 160.6875 L 125.167969 161.765625 L 124.414062 162.476562 M 206.09375 221.34375 L 207.78125 220.214844 L 209.46875 219.089844 L 208.703125 220.210938 C 207.832031 220.589844 206.964844 220.964844 206.09375 221.34375 M 126.386719 160.613281 L 128.195312 158.011719 L 128.527344 157.65625 C 128.148438 158.328125 127.769531 158.996094 127.390625 159.667969 L 126.386719 160.613281 M 91.78125 145.726562 L 95.5625 140.296875 L 99.347656 134.867188 L 95.632812 139.121094 C 94.347656 141.324219 93.0625 143.527344 91.78125 145.726562 M 118.644531 161.847656 L 121.027344 157.296875 L 123.40625 152.742188 C 124.046875 152.003906 124.683594 151.265625 125.320312 150.527344 L 118.644531 161.847656 M 210.644531 214.234375 L 212.15625 213.578125 L 213.671875 212.925781 L 212.539062 214.582031 C 211.910156 214.46875 211.277344 214.351562 210.644531 214.234375 M 165.96875 178.394531 L 166 178.324219 L 166.027344 178.25 L 166.644531 177.863281 C 166.417969 178.039062 166.195312 178.21875 165.96875 178.394531 M 129.089844 158.0625 L 129.441406 156.683594 L 133.480469 152.367188 C 132.96875 153.222656 132.453125 154.074219 131.941406 154.925781 C 131.636719 155.359375 131.332031 155.792969 131.03125 156.226562 L 129.089844 158.0625 M 130.367188 153.03125 L 130.628906 152.007812 L 130.996094 151.421875 L 133.296875 149.222656 L 132.570312 150.507812 L 131.5 151.378906 C 131.121094 151.929688 130.746094 152.480469 130.367188 153.03125 M 213.953125 216.5 L 213.417969 215.089844 L 215.054688 212.324219 L 220.117188 210.132812 L 213.953125 216.5 M 103.128906 133.738281 L 104.519531 132.363281 L 105.910156 130.984375 C 107.976562 128.625 110.042969 126.269531 112.109375 123.914062 C 110.558594 125.035156 109.007812 126.160156 107.457031 127.285156 L 103.128906 133.738281 M 143.492188 144.824219 L 143.515625 144.800781 C 143.539062 144.785156 143.558594 144.769531 143.578125 144.753906 C 143.550781 144.777344 143.519531 144.800781 143.492188 144.824219 M 134.488281 148.949219 L 138.46875 143.214844 L 142.449219 137.484375 C 140.484375 140.742188 138.519531 144.003906 136.554688 147.265625 C 135.867188 147.824219 135.175781 148.386719 134.488281 148.949219 M 277.707031 226.058594 L 278.105469 225.0625 L 278.5 224.070312 C 278.539062 224.1875 278.578125 224.304688 278.617188 224.421875 C 278.3125 224.964844 278.011719 225.511719 277.707031 226.058594 M 276.785156 220.875 L 276.808594 219.984375 L 276.828125 219.089844 L 277.160156 220.082031 C 277.035156 220.347656 276.910156 220.609375 276.785156 220.875 M 94.90625 134.167969 L 99.503906 131.875 L 107.441406 123.253906 L 110.644531 118.660156 L 113.59375 116.570312 L 116.929688 112.949219 L 124.476562 105.1875 L 115 111.828125 L 111.738281 112.53125 L 94.90625 134.167969 M 324.976562 319.910156 L 339.011719 305.824219 L 343.289062 299.648438 L 354.261719 273.449219 L 346.957031 287.996094 L 338.757812 303.355469 L 324.976562 319.910156 M 282.816406 226.34375 L 282.738281 224.273438 L 283.78125 221.132812 L 284.160156 222.222656 L 282.816406 226.34375 M 282.472656 217.484375 L 282.46875 217.40625 L 282.464844 217.332031 L 282.5 217.429688 L 282.472656 217.484375 M 280.964844 220.191406 L 280.65625 218.644531 L 281.867188 215.601562 L 282.285156 216.816406 L 282.269531 217.847656 L 280.964844 220.191406 M 279.203125 211.351562 L 279.132812 210.996094 L 279.058594 210.640625 L 279.507812 208.796875 L 279.644531 209.191406 L 279.203125 211.351562 M 336.992188 251.207031 L 337.003906 251.148438 L 337.023438 251.109375 L 336.992188 251.207031 M 353.933594 281.554688 L 355.960938 272.246094 L 357.984375 262.9375 C 357.976562 262.886719 357.96875 262.835938 357.960938 262.785156 L 353.933594 281.554688 M 130.394531 119.113281 L 133.90625 116.953125 L 144.222656 111.402344 L 148.664062 108.066406 L 147.308594 106.316406 L 130.394531 119.113281 M 168.785156 130.464844 L 171.070312 129.144531 L 173.359375 127.824219 L 179.019531 125.28125 C 175.609375 127.011719 172.195312 128.738281 168.785156 130.464844 M 99.347656 134.867188 L 117.464844 114.128906 L 129.4375 106.402344 L 143.515625 96.71875 L 139.703125 98.09375 L 113.59375 116.570312 L 107.441406 123.253906 L 99.347656 134.867188 M 334.816406 252.824219 L 337.035156 237.503906 C 337.074219 238.738281 337.113281 239.976562 337.152344 241.214844 L 334.816406 252.824219 M 292.175781 203.308594 L 290.617188 194.992188 L 291.496094 195.769531 L 292.425781 200.535156 L 292.175781 203.308594 M 287.183594 212.945312 L 286.769531 212.160156 L 288.9375 205.636719 L 288.558594 193.167969 L 289.097656 193.648438 L 290.253906 203.519531 L 287.183594 212.945312 M 288.226562 195.988281 L 287.914062 194.03125 L 287.878906 192.570312 L 288.199219 192.851562 L 288.226562 195.988281 M 274.414062 182.6875 L 273.140625 180.046875 L 274.515625 180.757812 L 274.414062 182.6875 M 287.882812 190.605469 L 287.859375 190.578125 L 287.835938 190.554688 L 287.832031 190.46875 L 287.832031 190.464844 L 287.882812 190.605469 M 143.515625 96.71875 L 149.046875 94.726562 C 150.691406 92.992188 152.335938 91.257812 153.980469 89.523438 C 150.492188 91.921875 147.003906 94.320312 143.515625 96.71875 M 272.441406 177.300781 L 272.371094 175.976562 L 272.773438 176.242188 L 274.640625 178.351562 L 274.640625 178.367188 L 272.441406 177.300781 M 341.125 231.949219 L 341.074219 230.472656 L 342.078125 225.742188 L 341.125 231.949219 M 154.976562 111.019531 L 175.324219 102.265625 L 176.5625 102.488281 L 172.339844 104.664062 L 154.976562 111.019531 M 288.101562 181.582031 L 287.566406 178.726562 L 287.507812 176.035156 L 287.683594 176.28125 L 288.074219 178.269531 L 288.101562 181.582031 M 172.128906 90.625 L 172.652344 90.429688 C 172.605469 90.433594 172.558594 90.433594 172.511719 90.4375 L 172.128906 90.625 M 340.960938 215.542969 L 340.753906 214.929688 L 340.542969 214.316406 L 340.535156 214.128906 C 340.679688 214.601562 340.820312 215.074219 340.960938 215.542969 M 184.511719 93.449219 L 186.195312 93.078125 L 186.375 93.101562 L 186.347656 93.308594 L 184.511719 93.449219 M 145.3125 103.527344 L 172.128906 90.625 L 156.09375 96.589844 L 165.210938 91.003906 L 172.511719 90.4375 L 177.386719 88.09375 L 179.457031 87.898438 L 172.652344 90.429688 L 174.570312 90.28125 L 145.3125 103.527344 M 196.898438 96.027344 L 197.804688 95.773438 L 198.710938 95.515625 C 198.742188 95.519531 198.777344 95.523438 198.808594 95.53125 L 196.898438 96.027344 M 334.808594 195.171875 L 333.796875 193.1875 L 333.757812 192.792969 L 334.667969 194.699219 L 334.808594 195.171875 M 198.664062 92.371094 L 201.070312 92.023438 L 203.472656 91.679688 C 203.742188 91.765625 204.011719 91.855469 204.285156 91.941406 C 202.410156 92.085938 200.539062 92.226562 198.664062 92.371094 M 335.097656 188.777344 L 332.746094 182.847656 L 332.722656 182.632812 L 335.097656 188.738281 L 335.097656 188.777344 M 233.171875 107.136719 L 246.167969 109.144531 L 241.148438 108.632812 L 233.171875 107.136719 M 176.390625 95.230469 L 181.257812 94.164062 L 178.757812 95.253906 L 186.21875 94.3125 L 185.949219 96.402344 L 186.402344 96.351562 L 187.671875 94.941406 L 195.074219 93.195312 L 204.484375 92.007812 L 207.964844 93.136719 L 208.902344 92.894531 L 208.015625 93.15625 L 210.429688 93.9375 L 216.476562 94.269531 L 226.894531 93.867188 L 214.5625 91.160156 L 206.105469 91.804688 L 208.574219 91.492188 L 191.324219 91.953125 L 199.550781 90.148438 L 195.507812 90.007812 L 203.097656 88.144531 L 186.121094 92.09375 L 183.832031 92.144531 L 176.722656 94.128906 L 176.390625 95.230469 M 120.390625 95.289062 L 149.324219 78.925781 L 161.375 74.054688 L 165.332031 69.488281 L 189.863281 65.3125 L 184.679688 64.351562 L 157.21875 69.992188 L 139.128906 76.785156 L 145.671875 75.617188 L 120.390625 95.289062 M 229.371094 98.644531 L 230.457031 98.511719 L 236.382812 99.53125 L 237.402344 100.179688 L 229.371094 98.644531 M 371.136719 217.027344 L 372.066406 214.492188 L 372.992188 211.957031 L 369.5625 195.777344 C 369.378906 196.535156 369.199219 197.292969 369.015625 198.050781 C 369.722656 204.375 370.429688 210.699219 371.136719 217.027344 M 256.410156 113.296875 L 253.816406 109.984375 L 256.4375 110.625 L 257.773438 112.261719 L 259.769531 113.699219 L 260.363281 114.507812 L 256.410156 113.296875 M 330.550781 161.777344 L 330.507812 161.707031 L 330.46875 161.636719 L 330.550781 161.777344 M 247.195312 101.398438 L 252.953125 102.394531 L 257.597656 105.90625 L 255.574219 105.269531 L 247.195312 101.398438 M 268.015625 115.859375 L 264.910156 112.894531 L 270.417969 115.199219 L 274.820312 118.925781 L 271.082031 117.78125 L 268.015625 115.859375 M 185.769531 74.296875 L 189.863281 75.023438 L 217.902344 71.878906 C 207.191406 72.683594 196.480469 73.492188 185.769531 74.296875 M 139.285156 70.402344 L 150.082031 67.109375 L 160.878906 63.8125 L 198.808594 57.625 L 170.28125 60.085938 L 139.285156 70.402344 M 271.152344 110.164062 L 271.113281 110.128906 L 271.070312 110.097656 L 271.070312 110.09375 C 271.117188 110.125 271.164062 110.152344 271.210938 110.183594 L 271.214844 110.183594 L 271.152344 110.164062 M 198.808594 57.625 L 199.570312 57.558594 L 200.335938 57.492188 C 200.195312 57.476562 200.054688 57.460938 199.914062 57.441406 C 199.542969 57.503906 199.175781 57.5625 198.808594 57.625 M 357.960938 262.785156 L 361.273438 247.34375 L 360.660156 210.261719 L 356.308594 186.644531 L 349.878906 169.40625 L 345.84375 164.015625 L 350.328125 176.78125 L 352.792969 189.519531 L 356.6875 199.097656 L 359.492188 237.308594 L 357.726562 261.25 L 357.960938 262.785156 M 330.648438 163.960938 L 330.46875 161.636719 L 327.027344 155.671875 L 327.171875 155.867188 L 330.46875 161.636719 L 330.460938 161.527344 L 328.382812 157.449219 L 330.339844 160.011719 L 330.222656 158.515625 L 322.082031 145.769531 L 320.570312 144.300781 L 322.925781 148.421875 L 322.804688 148.355469 L 320.328125 144.066406 L 319.445312 143.207031 L 321.488281 147.613281 L 320.402344 147.003906 L 322.441406 149.667969 L 323.859375 152.730469 L 330.648438 163.960938 M 308.304688 132.429688 L 308.195312 132.277344 L 308.453125 132.53125 C 308.40625 132.5 308.355469 132.464844 308.304688 132.429688 M 308.089844 132.285156 L 289.484375 117.660156 L 288.339844 116.628906 L 300.558594 124.863281 L 307.199219 131.3125 L 308.144531 132.320312 L 308.089844 132.285156 M 343.691406 190.171875 L 332.789062 163.214844 L 330.339844 160.011719 L 330.460938 161.527344 L 337.261719 174.890625 L 330.648438 163.960938 L 330.972656 168.078125 L 323.859375 152.730469 L 320.402344 147.003906 L 311.925781 135.902344 L 319.445312 143.207031 L 317.863281 139.792969 L 320.328125 144.066406 L 320.570312 144.300781 L 315.75 135.859375 L 322.082031 145.769531 L 326.171875 149.742188 L 339.515625 176.027344 L 343.691406 190.171875 M 230.441406 81.511719 L 244.367188 84.394531 L 245.632812 83.773438 L 255.242188 88.761719 L 251.035156 88.589844 L 242.980469 85.695312 L 241.023438 85.488281 L 230.441406 81.511719 M 220.632812 67.398438 L 229.167969 69.527344 L 237.703125 71.660156 L 232.574219 69.734375 C 228.59375 68.957031 224.613281 68.175781 220.632812 67.398438 M 314.15625 133.359375 L 289.414062 106.488281 L 281.800781 98.972656 L 289.019531 102.886719 L 308.441406 124.417969 L 314.15625 133.359375 M 200.335938 57.492188 L 217.066406 59.417969 L 233.796875 61.339844 L 210.339844 56.628906 L 200.335938 57.492188 M 142.007812 344.6875 L 164.53125 350.726562 C 164.628906 351.667969 173.914062 354.371094 192.382812 358.835938 L 203.050781 358.980469 L 194.765625 357.191406 C 209.082031 359.0625 218.253906 359.742188 222.28125 359.238281 L 255.519531 353.207031 L 232.628906 358.875 L 243.847656 357.351562 L 236.542969 359.230469 L 240.351562 360.542969 L 214.4375 362.175781 L 222.332031 360.882812 L 212.695312 361.0625 C 210.628906 359.851562 204.882812 359.375 195.460938 359.632812 L 202.433594 361.433594 L 197.859375 362.921875 L 215.257812 363.851562 L 245.570312 360.277344 L 273.980469 351.136719 L 308.3125 329.976562 L 281.664062 349.011719 L 282.863281 350.246094 L 291.386719 345.949219 L 310.769531 330.632812 L 332.207031 308.890625 L 348.746094 280.90625 L 355.347656 249.089844 L 356.316406 216.429688 L 350.386719 184.609375 L 337.804688 154.140625 L 318.609375 127.394531 L 294.648438 106.183594 C 302.761719 111.449219 311.804688 118.304688 321.78125 126.75 L 295.472656 104.425781 L 270.710938 89.074219 L 265.125 88.15625 L 224.949219 74.917969 L 189.863281 75.023438 L 159.777344 78.398438 L 136.210938 90.910156 L 176.78125 80.488281 L 208.320312 77.398438 L 214.066406 80.203125 L 192.695312 79.585938 L 175.382812 81.789062 C 172.46875 83.449219 171.421875 84.535156 172.234375 85.054688 L 176.671875 84.761719 L 149.046875 94.726562 L 124.078125 111.019531 L 113.605469 120.144531 L 115.398438 120.164062 L 112.109375 123.914062 L 115.585938 121.394531 L 105.910156 130.984375 L 101.941406 135.507812 L 103.128906 133.738281 L 97.886719 138.933594 C 95.550781 143.574219 90.65625 150.742188 83.199219 160.441406 L 91.78125 145.726562 L 82.984375 158.347656 L 81.082031 164.066406 L 81.34375 163.621094 L 72.226562 192.875 L 73.5 190.285156 L 72.128906 196.808594 L 72.109375 217.820312 L 77.386719 196.011719 L 77.066406 192.96875 L 84 175.972656 L 88.160156 156.347656 L 91.425781 151.1875 L 95.859375 148.898438 L 108.132812 134.726562 C 101.957031 142.597656 98.367188 149.128906 97.363281 154.3125 L 102.9375 145.746094 L 124.433594 123.625 L 130.394531 119.113281 L 117.664062 126.957031 L 143.941406 107.925781 L 140.003906 109.378906 L 109.726562 132.886719 L 113.105469 128.984375 L 139.382812 108.582031 L 170.984375 92.890625 L 162.050781 98.214844 L 176.722656 94.128906 L 177.296875 92.214844 L 183.832031 92.144531 L 196.390625 88.648438 C 202.605469 87.835938 205.632812 87.902344 205.480469 88.847656 L 199.550781 90.148438 L 225.75 91.066406 L 234.203125 94.136719 L 208.199219 94.589844 C 206.65625 94.078125 205.195312 94.015625 203.8125 94.398438 L 207.964844 93.136719 L 202.632812 94.53125 L 186.402344 96.351562 L 185.882812 96.925781 L 185.949219 96.402344 L 172.730469 97.882812 L 178.757812 95.253906 C 178.179688 94.839844 175.601562 95.222656 171.019531 96.410156 L 149.398438 108.0625 L 154.875 105.671875 C 151.238281 106.132812 140.675781 113.3125 123.1875 127.203125 L 110.734375 139.496094 L 95.042969 160.230469 L 88.863281 175.988281 C 89.128906 172.652344 89.808594 169.15625 90.902344 165.5 L 88.53125 168.433594 L 80.742188 197.859375 L 82.070312 204.925781 L 81.929688 226.664062 L 85.5 217.742188 L 85.003906 222.558594 C 85.015625 222.996094 84.964844 222.726562 84.847656 221.746094 C 85.054688 222.34375 84.539062 224.96875 83.300781 229.617188 C 84.980469 234.75 85.734375 242.109375 85.5625 251.699219 L 91.019531 271.25 L 90.03125 271.390625 L 97.074219 287.121094 L 98.796875 286.636719 L 102.929688 291.273438 L 121.75 315.261719 L 122.8125 317.617188 L 129.085938 323.640625 L 145.425781 332.582031 L 131.9375 326.382812 L 139.972656 334.09375 L 128.929688 328.070312 C 124.140625 321.414062 121.242188 318.367188 120.238281 318.929688 L 128.125 327.632812 L 124.480469 325.644531 L 98.632812 295.40625 L 81.59375 257.710938 L 79.265625 245.613281 L 77.949219 248.765625 L 76.488281 228.75 L 75.9375 241.683594 L 75.027344 237.054688 C 76.492188 227.71875 77.003906 217.679688 76.558594 206.9375 L 80.625 190.027344 L 78.414062 194.902344 L 75.40625 204.835938 L 72.878906 236.992188 L 72.097656 227.273438 L 72.296875 244.398438 C 73.664062 246.757812 74.027344 246.390625 73.386719 243.300781 L 76.996094 256.398438 L 74.222656 241.070312 L 75.925781 245.910156 L 79.824219 261.703125 L 78.195312 260.746094 L 82.714844 277.152344 L 104.015625 313.703125 L 142.007812 344.6875 M 237.703125 71.660156 L 266.996094 82.644531 L 277.367188 86.609375 L 277.878906 86.03125 L 254.226562 73.378906 L 259.554688 77.113281 L 237.703125 71.660156 M 330.28125 136.605469 L 330.988281 136.292969 L 331.691406 135.976562 L 311.503906 109.191406 L 308.492188 107.75 L 330.28125 136.605469 M 150.324219 361.78125 L 161.324219 368.421875 L 189.0625 374.859375 L 222.378906 377.574219 L 229.171875 379.410156 L 263.386719 371.882812 L 248.824219 376.855469 C 263.402344 373.785156 274.03125 370.835938 280.714844 368.007812 L 304.933594 352.820312 L 334.421875 328.851562 L 358.515625 299.101562 L 362.964844 284.257812 L 361.152344 284.953125 L 356.722656 293.289062 L 363.398438 270.078125 L 366.890625 241.5625 L 367.101562 207.878906 C 368.183594 236.316406 368.320312 253.015625 367.519531 257.976562 L 369.207031 223.320312 L 365.394531 192.75 C 361.6875 183.257812 358.25 173.285156 355.074219 162.832031 L 341.429688 139.441406 L 321.351562 114.167969 L 316.574219 109.9375 L 329.179688 125.101562 L 349.167969 154.386719 L 362.105469 189.269531 L 366.75 223.453125 L 366.246094 229.214844 L 361.800781 192.839844 L 351.242188 163.671875 L 359 186.878906 L 364.792969 219.789062 L 364.121094 242.511719 L 359.0625 276.835938 L 340.664062 311.574219 L 320.957031 330.492188 L 303.199219 345.019531 L 268.523438 363.851562 L 258.839844 366.242188 L 292.753906 350.640625 L 312.640625 336.847656 L 292.035156 347.757812 L 294.675781 347.765625 L 267.054688 362.292969 L 227.105469 371.402344 L 198.742188 368.300781 L 166.339844 361.523438 L 194.414062 369.457031 L 167.863281 363.085938 L 140.832031 350.449219 L 117.25 330.886719 L 115.621094 330.828125 L 105.039062 318.695312 L 113.828125 331.253906 L 135.75 349.945312 C 155.535156 361.613281 167.136719 367.894531 170.554688 368.785156 L 150.324219 361.78125 M 254.613281 64.507812 L 257.675781 66.074219 L 290.332031 84.074219 L 318.09375 102.496094 L 285.226562 79.339844 L 264.503906 68.980469 L 256.128906 64.273438 L 254.613281 64.507812 M 271.5625 67.324219 L 304.308594 86.8125 L 288.949219 76.300781 L 282.695312 72.199219 L 271.5625 67.324219 M 304.308594 86.8125 L 304.847656 87.179688 L 305.390625 87.550781 L 305.003906 87.226562 C 304.773438 87.089844 304.539062 86.949219 304.308594 86.8125 M 345.425781 122.921875 L 319.390625 97.132812 L 305.390625 87.550781 L 332.070312 110.136719 L 345.425781 122.921875 " fill-opacity="1" fill-rule="nonzero"/></g></g></g></g></g></g><path fill="#ffa923" d="M 266.714844 191.28125 C 266.761719 194.070312 266.554688 196.855469 266.109375 199.601562 C 265.8125 201.410156 265.375 203.289062 264.816406 205.203125 L 264.824219 205.21875 C 263.230469 210.617188 260.65625 215.75 257.144531 220.3125 C 256.121094 217.117188 254.859375 215.640625 256.460938 212.699219 C 258.972656 208.082031 260.628906 202.925781 261.179688 197.457031 C 261.539062 193.886719 263.8125 193.363281 266.714844 191.28125 M 258.542969 166.171875 C 256.957031 163.878906 255.164062 161.734375 253.199219 159.769531 C 251.902344 158.472656 250.457031 157.203125 248.878906 155.976562 L 248.878906 155.957031 C 244.4375 152.5 239.347656 149.835938 233.832031 148.179688 C 234.988281 151.742188 234.945312 154.949219 238.359375 156.605469 C 242.574219 158.65625 246.386719 161.414062 249.644531 164.722656 C 252.03125 167.144531 255.199219 166.171875 258.542969 166.171875 Z M 182.738281 166.171875 C 184.324219 163.878906 186.113281 161.734375 188.078125 159.769531 C 189.378906 158.472656 190.824219 157.203125 192.402344 155.976562 L 192.402344 155.957031 C 196.84375 152.5 201.929688 149.835938 207.449219 148.179688 C 206.195312 152.039062 206.316406 154.914062 202.664062 156.71875 C 198.53125 158.761719 194.789062 161.488281 191.585938 164.742188 C 189.230469 167.144531 186.042969 166.171875 182.738281 166.171875 Z M 174.542969 191.289062 C 174.492188 194.070312 174.699219 196.855469 175.144531 199.601562 C 175.441406 201.414062 175.875 203.285156 176.441406 205.199219 L 176.429688 205.222656 C 178.019531 210.617188 180.597656 215.75 184.113281 220.3125 C 185.128906 217.117188 186.398438 215.640625 184.796875 212.699219 C 182.28125 208.074219 180.632812 202.925781 180.078125 197.457031 C 179.714844 193.894531 177.441406 193.367188 174.542969 191.289062 Z M 205.277344 235.835938 C 207.910156 236.746094 210.613281 237.425781 213.363281 237.855469 C 215.175781 238.136719 217.089844 238.3125 219.089844 238.378906 L 219.097656 238.390625 C 224.722656 238.566406 230.402344 237.726562 235.839844 235.816406 C 233.382812 234.03125 232.441406 232.433594 229.46875 233.097656 C 226.621094 233.730469 223.660156 234.0625 220.628906 234.0625 C 217.5625 234.0625 214.574219 233.722656 211.703125 233.078125 C 208.695312 232.410156 207.757812 234.019531 205.277344 235.835938 Z M 205.277344 235.835938 " fill-opacity="1" fill-rule="evenodd"/><g clip-path="url(#fa73270731)"><path fill="#ffffff" d="M 232.179688 197.035156 C 232.203125 197.761719 232.167969 198.996094 232.199219 199.703125 C 232.226562 200.863281 231.351562 202.027344 230.84375 203.125 C 230.460938 203.960938 231.441406 202.90625 231.707031 202.515625 C 233.152344 200.445312 233.226562 199.523438 233.21875 197.078125 C 233.21875 196.535156 232.164062 196.433594 232.179688 197.035156 M 229.769531 196.976562 C 229.789062 197.9375 229.921875 199.164062 229.9375 200.128906 C 229.988281 201.679688 228.265625 204.03125 227.550781 204.960938 C 226.800781 205.949219 229.03125 204.5625 229.734375 203.355469 C 230.539062 201.980469 231.234375 200.859375 231.21875 199.863281 L 231.183594 196.988281 C 231.175781 196.246094 229.75 196.214844 229.769531 196.976562 Z M 227.089844 196.847656 C 227.109375 197.882812 227.203125 199.46875 227.226562 200.503906 C 227.273438 202.191406 225.859375 203.875 225.023438 205.179688 C 224.292969 206.308594 225.386719 205.664062 226.511719 204.523438 C 227.367188 203.65625 228.683594 202.117188 228.644531 199.640625 L 228.605469 196.730469 C 228.597656 196.042969 227.078125 196.132812 227.089844 196.847656 Z M 224.21875 196.929688 C 224.234375 197.980469 224.261719 199.039062 224.296875 200.082031 C 224.34375 201.785156 224.015625 202.890625 222.53125 205 C 221.757812 206.109375 223.527344 205.757812 224.25 204.660156 C 225.234375 203.171875 225.96875 202.046875 225.90625 200.25 L 225.800781 196.851562 C 225.78125 196.332031 224.203125 196.382812 224.21875 196.929688 Z M 221.328125 197.210938 C 221.316406 198.234375 221.386719 199.242188 221.417969 200.238281 C 221.464844 201.84375 220.496094 203.367188 219.820312 204.597656 C 219.304688 205.527344 220.484375 205.894531 221.0625 205.035156 C 222.042969 203.59375 223.085938 202.457031 223.039062 199.917969 L 222.988281 197.160156 C 222.976562 196.535156 221.339844 196.535156 221.328125 197.210938 Z M 218.273438 197.453125 C 218.09375 198.335938 218.328125 199.257812 218.335938 200.15625 C 218.382812 201.59375 217.546875 202.609375 216.84375 203.953125 C 216.285156 205.019531 217.375 205.445312 217.734375 204.964844 C 218.734375 203.621094 220.09375 202.175781 220.058594 199.867188 L 220.019531 197.414062 C 220.003906 196.808594 218.367188 196.984375 218.273438 197.453125 Z M 212.730469 196.535156 L 212.902344 197.65625 C 214.050781 196.757812 215.207031 195.914062 216.023438 195.65625 C 218.15625 194.933594 221.882812 194.339844 225.378906 194.128906 C 225.273438 193.5 225.222656 193.117188 225.121094 192.484375 C 219.621094 192.886719 215.148438 193.382812 212.730469 196.535156 Z M 212.429688 193.765625 L 212.648438 195.289062 C 213.347656 193.503906 218.957031 191.226562 224.878906 191.199219 C 224.792969 190.691406 224.738281 190.394531 224.652344 189.886719 C 217.875 190.25 215.566406 190.832031 212.429688 193.765625 Z M 212.183594 190.9375 L 212.355469 192.554688 C 214.140625 190.144531 218.507812 188.632812 224.433594 188.617188 C 224.339844 188.105469 224.300781 187.824219 224.210938 187.316406 C 218.46875 187.484375 214.011719 188.65625 212.183594 190.9375 Z M 211.890625 188.199219 L 212.050781 189.726562 C 213.820312 187.59375 217.667969 186.238281 222.835938 186.066406 C 222.386719 185.667969 222.082031 185.214844 221.964844 184.597656 C 217.597656 184.90625 213.789062 185.902344 211.890625 188.199219 Z M 211.601562 185.515625 L 211.753906 186.917969 C 213.550781 184.980469 217.164062 183.71875 221.972656 183.496094 C 222.113281 182.875 222.457031 182.320312 222.945312 181.929688 C 217.941406 182.125 213.605469 183.171875 211.601562 185.515625 Z M 211.34375 182.957031 L 211.460938 184.183594 C 213.578125 182.195312 217.753906 180.878906 223.113281 180.882812 L 222.851562 179.519531 C 222.847656 179.519531 222.839844 179.519531 222.835938 179.519531 C 217.085938 179.476562 213.328125 180.816406 211.34375 182.957031 Z M 211.039062 180.265625 L 211.164062 181.382812 C 213.300781 179.460938 217.375 178.292969 222.667969 178.308594 L 222.410156 176.867188 C 222.386719 176.863281 222.367188 176.875 222.34375 176.875 C 216.484375 176.828125 212.878906 178.027344 211.039062 180.265625 Z M 220.628906 123.523438 L 235.902344 170.535156 L 285.335938 170.535156 L 245.34375 199.59375 L 260.617188 246.613281 L 223.996094 219.996094 L 223.980469 214.449219 L 225.722656 212.96875 L 227.238281 206.929688 C 229.707031 205.9375 235.015625 202.164062 233.640625 195.621094 C 233.578125 195.308594 233.519531 194.984375 233.308594 194.863281 C 232.242188 194.242188 229.917969 194.027344 227.257812 194.070312 L 226.941406 192.242188 C 229.636719 192.203125 231.859375 192.222656 233.480469 193.097656 C 233.492188 192.679688 233.363281 192.242188 233.070312 191.855469 C 231.457031 191.171875 229.328125 191.164062 226.761719 191.195312 L 226.503906 189.679688 C 229.265625 189.648438 231.460938 189.671875 233.046875 190.535156 C 233.070312 190.109375 232.96875 189.671875 232.683594 189.304688 C 231.09375 188.605469 228.96875 188.601562 226.308594 188.640625 L 226.0625 187.097656 C 228.9375 187.078125 231.132812 187.101562 232.707031 187.957031 C 232.742188 187.558594 232.621094 187.117188 232.347656 186.742188 C 230.835938 186.085938 228.882812 186.03125 226.378906 186.054688 C 226.804688 185.648438 227.109375 185.132812 227.230469 184.539062 C 229.394531 184.554688 231.074219 184.710938 232.363281 185.402344 C 232.390625 184.992188 232.257812 184.554688 231.996094 184.183594 C 230.757812 183.652344 229.207031 183.535156 227.222656 183.484375 C 227.078125 182.875 226.730469 182.335938 226.265625 181.941406 C 228.824219 181.984375 230.636719 182.117188 232.027344 182.847656 C 232.042969 182.429688 231.925781 181.992188 231.644531 181.617188 C 230.09375 180.945312 228 180.921875 224.992188 180.890625 L 224.722656 179.363281 C 227.972656 179.402344 230.113281 179.445312 231.675781 180.289062 C 231.683594 179.867188 231.585938 179.441406 231.300781 179.082031 C 229.746094 178.394531 227.683594 178.363281 224.550781 178.320312 L 224.289062 176.789062 C 227.648438 176.847656 229.777344 176.898438 231.351562 177.742188 C 231.359375 177.316406 231.269531 176.703125 230.984375 176.347656 C 229.445312 175.660156 227.332031 175.550781 224.066406 175.5 L 223.835938 174.167969 C 227.046875 174.171875 229.257812 174.175781 230.921875 175.0625 C 230.914062 174.644531 230.773438 174.203125 230.488281 173.828125 C 230.28125 172.953125 229.9375 172.210938 229.457031 171.601562 L 229.578125 172.117188 C 229.730469 172.777344 228.746094 172.582031 228.625 172.164062 C 228.25 170.867188 228.128906 170.207031 226.863281 169.625 L 227.390625 171.660156 C 227.519531 172.160156 226.464844 172.097656 226.226562 171.78125 C 225.796875 171.210938 225.824219 169.171875 225.09375 169.019531 C 224.835938 168.96875 224.457031 168.902344 224.195312 168.863281 L 224.902344 171.597656 C 225.003906 171.980469 223.652344 171.941406 223.464844 171.648438 C 223.027344 170.996094 223.042969 168.726562 222.210938 168.710938 C 221.984375 168.710938 221.65625 168.703125 221.4375 168.703125 L 222.171875 171.515625 C 222.273438 171.910156 221.09375 171.953125 220.914062 171.5625 C 220.546875 170.757812 220.664062 168.769531 219.679688 168.851562 C 219.40625 168.871094 218.894531 168.894531 218.628906 168.929688 L 219.308594 171.53125 C 219.4375 172.023438 218.097656 171.992188 217.960938 171.582031 C 217.664062 170.679688 217.671875 169.042969 216.59375 169.28125 C 216.132812 169.382812 216.015625 169.335938 215.699219 169.425781 L 216.273438 171.914062 C 216.394531 172.433594 215.03125 172.457031 214.753906 171.953125 C 214.210938 170.9375 214.742188 169.695312 213.488281 170.238281 C 208.3125 172.511719 207.71875 177.25 207.398438 181.695312 C 207.457031 182.136719 207.523438 182.585938 207.582031 183.035156 C 207.714844 183.203125 207.835938 183.34375 207.976562 183.460938 C 207.878906 183.589844 207.78125 183.742188 207.722656 183.929688 C 207.78125 184.453125 207.859375 184.949219 207.941406 185.464844 C 208.054688 185.613281 208.1875 185.75 208.300781 185.867188 C 208.210938 185.976562 208.128906 186.128906 208.050781 186.300781 C 208.132812 186.820312 208.207031 187.34375 208.292969 187.890625 C 208.382812 188.027344 208.519531 188.160156 208.632812 188.261719 C 208.546875 188.363281 208.457031 188.496094 208.414062 188.660156 C 208.480469 189.210938 208.558594 189.765625 208.632812 190.316406 C 208.742188 190.449219 208.851562 190.550781 208.960938 190.640625 C 208.878906 190.753906 208.796875 190.875 208.730469 191.015625 C 208.816406 191.59375 208.90625 192.164062 208.980469 192.738281 C 209.089844 192.847656 209.175781 192.949219 209.28125 193.050781 C 209.199219 193.128906 209.136719 193.242188 209.070312 193.371094 C 209.160156 193.964844 209.25 194.566406 209.335938 195.15625 C 209.421875 195.269531 209.515625 195.351562 209.613281 195.445312 C 209.53125 195.519531 209.476562 195.628906 209.417969 195.75 C 209.503906 196.347656 209.59375 196.972656 209.691406 197.585938 C 209.761719 197.675781 209.855469 197.753906 209.933594 197.832031 C 209.875 197.917969 209.816406 197.996094 209.757812 198.09375 C 209.84375 198.71875 209.933594 199.308594 210.023438 199.941406 C 210 199.949219 209.996094 199.953125 209.992188 199.964844 C 210.082031 200.058594 210.164062 200.148438 210.265625 200.234375 C 210.136719 200.363281 210.035156 200.566406 209.964844 200.789062 C 210.199219 202.519531 211.039062 208.316406 214.898438 208.144531 L 217.398438 214.246094 L 217.449219 219.867188 L 180.632812 246.613281 L 195.910156 199.59375 L 155.917969 170.535156 L 205.351562 170.535156 Z M 222.171875 175.53125 C 214.585938 175.859375 212.308594 177.171875 210.882812 178.816406 C 210.734375 177.355469 210.96875 176.988281 212.289062 176.179688 C 214.550781 174.792969 217.59375 174.160156 221.945312 174.160156 Z M 222.171875 175.53125 " fill-opacity="1" fill-rule="evenodd"/></g><g transform="matrix(1, 0, 0, 1, 178, 243)"><g clip-path="url(#448f04f626)"><g fill="#ffffff" fill-opacity="1"><g transform="translate(1.572819, 40.864718)"><g><path d="M 7.65625 0 L 3.828125 0 C 3.296875 0 3.03125 -0.269531 3.03125 -0.8125 L 3.03125 -29.5625 C 3.03125 -30.070312 3.128906 -30.441406 3.328125 -30.671875 C 3.523438 -30.898438 3.773438 -30.984375 4.078125 -30.921875 C 4.390625 -30.859375 4.695312 -30.625 5 -30.21875 L 17.609375 -13.5 L 30.25 -30.21875 C 30.550781 -30.625 30.851562 -30.859375 31.15625 -30.921875 C 31.457031 -30.984375 31.707031 -30.898438 31.90625 -30.671875 C 32.113281 -30.441406 32.21875 -30.070312 32.21875 -29.5625 L 32.21875 -0.8125 C 32.21875 -0.269531 31.945312 0 31.40625 0 L 27.59375 0 C 27.050781 0 26.78125 -0.269531 26.78125 -0.8125 L 26.78125 -16.875 L 18.171875 -5.6875 C 18.003906 -5.445312 17.816406 -5.328125 17.609375 -5.328125 C 17.410156 -5.328125 17.21875 -5.445312 17.03125 -5.6875 L 8.453125 -16.84375 L 8.453125 -0.8125 C 8.453125 -0.269531 8.1875 0 7.65625 0 Z M 7.65625 0 "/></g></g><g transform="translate(36.813025, 40.864718)"><g><path d="M 7.65625 0 L 3.828125 0 C 3.296875 0 3.03125 -0.269531 3.03125 -0.8125 L 3.03125 -29.5625 C 3.03125 -30.070312 3.128906 -30.441406 3.328125 -30.671875 C 3.523438 -30.898438 3.773438 -30.984375 4.078125 -30.921875 C 4.390625 -30.859375 4.695312 -30.625 5 -30.21875 L 17.609375 -13.5 L 30.25 -30.21875 C 30.550781 -30.625 30.851562 -30.859375 31.15625 -30.921875 C 31.457031 -30.984375 31.707031 -30.898438 31.90625 -30.671875 C 32.113281 -30.441406 32.21875 -30.070312 32.21875 -29.5625 L 32.21875 -0.8125 C 32.21875 -0.269531 31.945312 0 31.40625 0 L 27.59375 0 C 27.050781 0 26.78125 -0.269531 26.78125 -0.8125 L 26.78125 -16.875 L 18.171875 -5.6875 C 18.003906 -5.445312 17.816406 -5.328125 17.609375 -5.328125 C 17.410156 -5.328125 17.21875 -5.445312 17.03125 -5.6875 L 8.453125 -16.84375 L 8.453125 -0.8125 C 8.453125 -0.269531 8.1875 0 7.65625 0 Z M 7.65625 0 "/></g></g><g transform="translate(72.05323, 40.864718)"><g><path d="M 7.703125 0 L 3.796875 0 C 3.253906 0 2.984375 -0.269531 2.984375 -0.8125 L 2.984375 -29.40625 C 2.984375 -29.945312 3.253906 -30.21875 3.796875 -30.21875 L 7.703125 -30.21875 C 8.242188 -30.21875 8.515625 -29.945312 8.515625 -29.40625 L 8.515625 -0.8125 C 8.515625 -0.269531 8.242188 0 7.703125 0 Z M 7.703125 0 "/></g></g></g></g></g><g transform="matrix(1, 0, 0, 1, 130, 289)"><g clip-path="url(#ddf0ffed3e)"><g fill="#ffffff" fill-opacity="1"><g transform="translate(0.388933, 12.781408)"><g><path d="M 0.984375 0 L 0.984375 -8.21875 L 2.578125 -8.21875 L 5.5 -3.953125 L 8.40625 -8.21875 L 9.984375 -8.21875 L 9.984375 0 L 8.125 0 L 8.125 -4.953125 L 6.140625 -2.03125 L 4.84375 -2.03125 L 2.84375 -4.953125 L 2.84375 0 Z M 0.984375 0 "/></g></g></g><g fill="#ffffff" fill-opacity="1"><g transform="translate(15.017587, 12.781408)"><g><path d="M 0.984375 0 L 0.984375 -8.21875 L 2.859375 -8.21875 L 2.859375 0 Z M 0.984375 0 "/></g></g></g><g fill="#ffffff" fill-opacity="1"><g transform="translate(22.51468, 12.781408)"><g><path d="M 4.765625 0.171875 C 3.929688 0.171875 3.191406 -0.0078125 2.546875 -0.375 C 1.910156 -0.738281 1.410156 -1.242188 1.046875 -1.890625 C 0.679688 -2.535156 0.5 -3.273438 0.5 -4.109375 C 0.5 -4.953125 0.679688 -5.691406 1.046875 -6.328125 C 1.410156 -6.972656 1.910156 -7.476562 2.546875 -7.84375 C 3.179688 -8.207031 3.914062 -8.390625 4.75 -8.390625 C 5.445312 -8.390625 6.082031 -8.253906 6.65625 -7.984375 C 7.238281 -7.722656 7.726562 -7.347656 8.125 -6.859375 C 8.519531 -6.378906 8.796875 -5.804688 8.953125 -5.140625 L 7.03125 -5.140625 C 6.875 -5.597656 6.59375 -5.957031 6.1875 -6.21875 C 5.789062 -6.476562 5.332031 -6.609375 4.8125 -6.609375 C 4.34375 -6.609375 3.925781 -6.503906 3.5625 -6.296875 C 3.195312 -6.085938 2.910156 -5.796875 2.703125 -5.421875 C 2.503906 -5.046875 2.40625 -4.609375 2.40625 -4.109375 C 2.40625 -3.617188 2.503906 -3.1875 2.703125 -2.8125 C 2.910156 -2.4375 3.191406 -2.140625 3.546875 -1.921875 C 3.910156 -1.710938 4.328125 -1.609375 4.796875 -1.609375 C 5.335938 -1.609375 5.8125 -1.742188 6.21875 -2.015625 C 6.625 -2.296875 6.910156 -2.675781 7.078125 -3.15625 L 9.015625 -3.15625 C 8.878906 -2.488281 8.609375 -1.90625 8.203125 -1.40625 C 7.804688 -0.90625 7.3125 -0.515625 6.71875 -0.234375 C 6.132812 0.0351562 5.484375 0.171875 4.765625 0.171875 Z M 4.765625 0.171875 "/></g></g></g><g fill="#ffffff" fill-opacity="1"><g transform="translate(35.651231, 12.781408)"><g/></g></g><g fill="#ffffff" fill-opacity="1"><g transform="translate(42.067428, 12.781408)"><g><path d="M 0.984375 0 L 0.984375 -8.21875 L 2.578125 -8.21875 L 5.5 -3.953125 L 8.40625 -8.21875 L 9.984375 -8.21875 L 9.984375 0 L 8.125 0 L 8.125 -4.953125 L 6.140625 -2.03125 L 4.84375 -2.03125 L 2.84375 -4.953125 L 2.84375 0 Z M 0.984375 0 "/></g></g></g><g fill="#ffffff" fill-opacity="1"><g transform="translate(56.696083, 12.781408)"><g><path d="M 0.109375 0 L 3.375 -8.21875 L 5.203125 -8.21875 L 8.46875 0 L 6.46875 0 L 5.921875 -1.421875 L 2.65625 -1.421875 L 2.109375 0 Z M 3.140625 -2.890625 L 5.453125 -2.890625 L 4.28125 -5.90625 Z M 3.140625 -2.890625 "/></g></g></g><g fill="#ffffff" fill-opacity="1"><g transform="translate(68.927967, 12.781408)"><g><path d="M 3.859375 0.171875 C 3.160156 0.171875 2.5625 0.0546875 2.0625 -0.171875 C 1.570312 -0.398438 1.191406 -0.722656 0.921875 -1.140625 C 0.648438 -1.566406 0.515625 -2.0625 0.515625 -2.625 L 2.34375 -2.625 C 2.34375 -2.226562 2.476562 -1.921875 2.75 -1.703125 C 3.019531 -1.484375 3.382812 -1.375 3.84375 -1.375 C 4.238281 -1.375 4.546875 -1.445312 4.765625 -1.59375 C 4.992188 -1.75 5.109375 -1.96875 5.109375 -2.25 C 5.109375 -2.53125 4.96875 -2.757812 4.6875 -2.9375 C 4.414062 -3.125 3.992188 -3.28125 3.421875 -3.40625 C 2.453125 -3.613281 1.738281 -3.921875 1.28125 -4.328125 C 0.820312 -4.742188 0.59375 -5.285156 0.59375 -5.953125 C 0.59375 -6.703125 0.863281 -7.296875 1.40625 -7.734375 C 1.957031 -8.171875 2.707031 -8.390625 3.65625 -8.390625 C 4.300781 -8.390625 4.863281 -8.273438 5.34375 -8.046875 C 5.820312 -7.828125 6.191406 -7.515625 6.453125 -7.109375 C 6.710938 -6.710938 6.84375 -6.234375 6.84375 -5.671875 L 5.046875 -5.671875 C 5.046875 -6.046875 4.925781 -6.335938 4.6875 -6.546875 C 4.445312 -6.753906 4.109375 -6.859375 3.671875 -6.859375 C 3.285156 -6.859375 2.976562 -6.78125 2.75 -6.625 C 2.519531 -6.476562 2.40625 -6.269531 2.40625 -6 C 2.40625 -5.738281 2.53125 -5.519531 2.78125 -5.34375 C 3.03125 -5.175781 3.46875 -5.019531 4.09375 -4.875 C 5.125 -4.632812 5.863281 -4.3125 6.3125 -3.90625 C 6.769531 -3.5 7 -2.96875 7 -2.3125 C 7 -1.539062 6.71875 -0.929688 6.15625 -0.484375 C 5.601562 -0.046875 4.835938 0.171875 3.859375 0.171875 Z M 3.859375 0.171875 "/></g></g></g><g fill="#ffffff" fill-opacity="1"><g transform="translate(80.114205, 12.781408)"><g><path d="M 2.96875 0 L 2.96875 -6.46875 L 0.359375 -6.46875 L 0.359375 -8.21875 L 7.4375 -8.21875 L 7.4375 -6.46875 L 4.828125 -6.46875 L 4.828125 0 Z M 2.96875 0 "/></g></g></g><g fill="#ffffff" fill-opacity="1"><g transform="translate(91.558913, 12.781408)"><g><path d="M 0.984375 0 L 0.984375 -8.21875 L 6.390625 -8.21875 L 6.390625 -6.65625 L 2.84375 -6.65625 L 2.84375 -4.953125 L 6.078125 -4.953125 L 6.078125 -3.390625 L 2.84375 -3.390625 L 2.84375 -1.59375 L 6.515625 -1.59375 L 6.515625 0 Z M 0.984375 0 "/></g></g></g><g fill="#ffffff" fill-opacity="1"><g transform="translate(102.333943, 12.781408)"><g><path d="M 0.984375 0 L 0.984375 -8.21875 L 4.5 -8.21875 C 5.125 -8.21875 5.664062 -8.101562 6.125 -7.875 C 6.59375 -7.65625 6.953125 -7.332031 7.203125 -6.90625 C 7.453125 -6.488281 7.578125 -5.984375 7.578125 -5.390625 C 7.578125 -4.785156 7.4375 -4.265625 7.15625 -3.828125 C 6.882812 -3.398438 6.503906 -3.078125 6.015625 -2.859375 L 7.71875 0 L 5.5625 0 L 4.09375 -2.5625 L 2.859375 -2.5625 L 2.859375 0 Z M 2.828125 -4.140625 L 4.25 -4.140625 C 4.71875 -4.140625 5.070312 -4.242188 5.3125 -4.453125 C 5.5625 -4.671875 5.6875 -4.976562 5.6875 -5.375 C 5.6875 -5.78125 5.5625 -6.085938 5.3125 -6.296875 C 5.070312 -6.515625 4.71875 -6.625 4.25 -6.625 L 2.828125 -6.625 Z M 2.828125 -4.140625 "/></g></g></g><g fill="#ffffff" fill-opacity="1"><g transform="translate(114.260358, 12.781408)"><g><path d="M 3.859375 0.171875 C 3.160156 0.171875 2.5625 0.0546875 2.0625 -0.171875 C 1.570312 -0.398438 1.191406 -0.722656 0.921875 -1.140625 C 0.648438 -1.566406 0.515625 -2.0625 0.515625 -2.625 L 2.34375 -2.625 C 2.34375 -2.226562 2.476562 -1.921875 2.75 -1.703125 C 3.019531 -1.484375 3.382812 -1.375 3.84375 -1.375 C 4.238281 -1.375 4.546875 -1.445312 4.765625 -1.59375 C 4.992188 -1.75 5.109375 -1.96875 5.109375 -2.25 C 5.109375 -2.53125 4.96875 -2.757812 4.6875 -2.9375 C 4.414062 -3.125 3.992188 -3.28125 3.421875 -3.40625 C 2.453125 -3.613281 1.738281 -3.921875 1.28125 -4.328125 C 0.820312 -4.742188 0.59375 -5.285156 0.59375 -5.953125 C 0.59375 -6.703125 0.863281 -7.296875 1.40625 -7.734375 C 1.957031 -8.171875 2.707031 -8.390625 3.65625 -8.390625 C 4.300781 -8.390625 4.863281 -8.273438 5.34375 -8.046875 C 5.820312 -7.828125 6.191406 -7.515625 6.453125 -7.109375 C 6.710938 -6.710938 6.84375 -6.234375 6.84375 -5.671875 L 5.046875 -5.671875 C 5.046875 -6.046875 4.925781 -6.335938 4.6875 -6.546875 C 4.445312 -6.753906 4.109375 -6.859375 3.671875 -6.859375 C 3.285156 -6.859375 2.976562 -6.78125 2.75 -6.625 C 2.519531 -6.476562 2.40625 -6.269531 2.40625 -6 C 2.40625 -5.738281 2.53125 -5.519531 2.78125 -5.34375 C 3.03125 -5.175781 3.46875 -5.019531 4.09375 -4.875 C 5.125 -4.632812 5.863281 -4.3125 6.3125 -3.90625 C 6.769531 -3.5 7 -2.96875 7 -2.3125 C 7 -1.539062 6.71875 -0.929688 6.15625 -0.484375 C 5.601562 -0.046875 4.835938 0.171875 3.859375 0.171875 Z M 3.859375 0.171875 "/></g></g></g><g fill="#ffffff" fill-opacity="1"><g transform="translate(125.446596, 12.781408)"><g/></g></g><g fill="#ffffff" fill-opacity="1"><g transform="translate(131.862794, 12.781408)"><g><path d="M 0.984375 0 L 0.984375 -8.21875 L 2.859375 -8.21875 L 2.859375 0 Z M 0.984375 0 "/></g></g></g><g fill="#ffffff" fill-opacity="1"><g transform="translate(139.359887, 12.781408)"><g><path d="M 0.984375 0 L 0.984375 -8.21875 L 2.578125 -8.21875 L 6.203125 -3.21875 L 6.203125 -8.21875 L 8.0625 -8.21875 L 8.0625 0 L 6.46875 0 L 2.84375 -5.046875 L 2.84375 0 Z M 0.984375 0 "/></g></g></g><g fill="#ffffff" fill-opacity="1"><g transform="translate(152.06173, 12.781408)"><g><path d="M 0.984375 0 L 0.984375 -8.21875 L 4.234375 -8.21875 C 5.109375 -8.21875 5.867188 -8.046875 6.515625 -7.703125 C 7.171875 -7.359375 7.675781 -6.875 8.03125 -6.25 C 8.394531 -5.632812 8.578125 -4.921875 8.578125 -4.109375 C 8.578125 -3.285156 8.394531 -2.566406 8.03125 -1.953125 C 7.675781 -1.335938 7.171875 -0.859375 6.515625 -0.515625 C 5.867188 -0.171875 5.109375 0 4.234375 0 Z M 2.859375 -1.71875 L 4.203125 -1.71875 C 4.691406 -1.71875 5.117188 -1.816406 5.484375 -2.015625 C 5.859375 -2.210938 6.144531 -2.488281 6.34375 -2.84375 C 6.550781 -3.207031 6.65625 -3.628906 6.65625 -4.109375 C 6.65625 -4.597656 6.550781 -5.019531 6.34375 -5.375 C 6.144531 -5.726562 5.859375 -6.003906 5.484375 -6.203125 C 5.109375 -6.410156 4.675781 -6.515625 4.1875 -6.515625 L 2.859375 -6.515625 Z M 2.859375 -1.71875 "/></g></g></g><g fill="#ffffff" fill-opacity="1"><g transform="translate(164.787072, 12.781408)"><g><path d="M 0.984375 0 L 0.984375 -8.21875 L 2.859375 -8.21875 L 2.859375 0 Z M 0.984375 0 "/></g></g></g><g fill="#ffffff" fill-opacity="1"><g transform="translate(172.284165, 12.781408)"><g><path d="M 0.109375 0 L 3.375 -8.21875 L 5.203125 -8.21875 L 8.46875 0 L 6.46875 0 L 5.921875 -1.421875 L 2.65625 -1.421875 L 2.109375 0 Z M 3.140625 -2.890625 L 5.453125 -2.890625 L 4.28125 -5.90625 Z M 3.140625 -2.890625 "/></g></g></g></g></g></svg>